<svg width="81" height="70" viewBox="0 0 81 70" fill="none" xmlns="http://www.w3.org/2000/svg">
<g id="Github">
<path id="bg" d="M62.1 0H18.9C8.46182 0 0 7.31268 0 16.3333V53.6667C0 62.6873 8.46182 70 18.9 70H62.1C72.5382 70 81 62.6873 81 53.6667V16.3333C81 7.31268 72.5382 0 62.1 0Z" fill="url(#paint0_linear_124_55)"/>
<path id="Vector" d="M39.9999 9C33.8262 9.00025 27.854 11.1662 23.1519 15.1104C18.4499 19.0545 15.3248 24.5194 14.3358 30.5272C13.3469 36.5351 14.5586 42.6939 17.7542 47.9015C20.9498 53.1092 25.9207 57.0259 31.7775 58.9509C33.0775 59.1753 33.565 58.4063 33.565 57.7334C33.565 57.1247 33.5325 55.1061 33.5325 52.9594C27 54.1449 25.31 51.3895 24.79 49.9477C24.213 48.5454 23.2983 47.3027 22.125 46.327C21.215 45.8464 19.915 44.6609 22.0925 44.629C22.9239 44.7179 23.7214 45.0031 24.4172 45.4605C25.1131 45.9178 25.6869 46.5338 26.09 47.2562C26.4456 47.886 26.9237 48.4404 27.4971 48.8877C28.0704 49.335 28.7276 49.6663 29.431 49.8628C30.1345 50.0592 30.8703 50.1169 31.5964 50.0325C32.3225 49.9481 33.0246 49.7232 33.6624 49.3709C33.7749 48.0678 34.364 46.8494 35.3199 45.9426C29.535 45.3018 23.49 43.0909 23.49 33.2867C23.4535 30.7392 24.407 28.2745 26.155 26.398C25.3601 24.1839 25.4531 21.7542 26.415 19.6054C26.415 19.6054 28.5924 18.9326 33.5649 22.2328C37.8193 21.0792 42.3105 21.0792 46.5648 22.2328C51.5373 18.9006 53.7148 19.6054 53.7148 19.6054C54.6768 21.7541 54.7698 24.184 53.9748 26.398C55.7281 28.2713 56.6824 30.7381 56.6398 33.2867C56.6398 43.123 50.5623 45.3018 44.7774 45.9426C45.3978 46.5626 45.8757 47.307 46.1785 48.1252C46.4814 48.9435 46.602 49.8163 46.5323 50.6846C46.5323 54.113 46.4998 56.8684 46.4998 57.7335C46.4998 58.4064 46.9873 59.2074 48.2873 58.951C54.1338 57.0103 59.0904 53.0844 62.2724 47.8741C65.4544 42.6637 66.6546 36.5082 65.6588 30.5061C64.663 24.5041 61.536 19.0463 56.836 15.1069C52.136 11.1676 46.1689 9.00317 39.9999 9Z" fill="white"/>
</g>
<defs>
<linearGradient id="paint0_linear_124_55" x1="4050" y1="0" x2="4050" y2="7000" gradientUnits="userSpaceOnUse">
<stop stop-color="#303B3C"/>
<stop offset="1" stop-color="#00D6FA"/>
</linearGradient>
</defs>
</svg>
