<svg width="70" height="70" viewBox="0 0 70 70" fill="none" xmlns="http://www.w3.org/2000/svg">
<g id="Group 46">
<path id="Vector" d="M56.2788 42.9541L56.2849 42.9599L56.2757 42.9658C55.8344 43.1204 55.4692 43.1845 55.1618 43.3158C54.8483 43.4354 54.5957 43.6541 54.4465 43.9341L54.4435 43.9399C54.2548 44.2754 54.0904 44.8704 54.1391 45.8825C54.2639 45.97 54.4161 46.037 54.5713 46.0837L54.5835 46.0866C55.0979 46.2383 55.9592 46.3375 56.921 46.3229C58.8384 46.3025 61.2002 45.8679 62.4541 45.302C63.5346 44.8091 64.4598 44.2141 65.2846 43.5083C61.0967 44.3483 58.7319 44.1237 57.2801 43.5433C56.9027 43.3858 56.5709 43.1904 56.2788 42.9541Z" fill="white"/>
<path id="Vector_2" d="M35.9661 56.2892C35.963 56.2163 35.9661 56.1405 35.963 56.0676C35.963 56.0384 35.96 56.018 35.96 55.9888L35.9661 56.2892ZM32.7551 43.4179C32.5786 43.3333 32.3717 43.272 32.1495 43.2429H32.1403V43.237H32.0764C31.9182 43.2516 31.6869 43.3041 31.2364 43.7854C30.1894 44.9229 29.8242 45.6375 28.9598 46.3054C28.0955 46.9704 26.9754 47.3262 24.7354 47.7725C24.0262 47.9125 23.6184 48.0671 23.3506 48.1925C23.4388 48.2625 23.4297 48.28 23.5606 48.3471C23.8893 48.5221 24.3093 48.6767 24.6502 48.7613C25.6119 48.9946 27.1946 49.2659 28.8442 48.9946C30.4938 48.7204 32.2103 47.9533 33.6743 45.9612C33.9269 45.6171 33.9543 45.1096 33.7473 44.5641C33.5404 44.0187 33.0778 43.5491 32.7551 43.4179ZM45.045 4.38086L44.8715 4.41294C44.9293 4.40128 44.9933 4.39544 45.0511 4.38378C45.048 4.38378 45.048 4.38086 45.045 4.38086ZM53.5122 20.1252C51.4699 20.1514 50.3256 20.6618 49.7229 21.3298C48.8707 22.2777 48.7916 23.9402 49.3212 25.9877C49.8477 28.0382 50.9343 30.3307 51.9569 32.2353C52.4682 33.189 52.9643 34.0465 53.363 34.7436C53.7648 35.4436 54.06 35.9395 54.2396 36.3624C54.4039 36.7532 54.5896 37.0974 54.7752 37.4182C55.5666 35.7995 55.7066 34.2099 55.6274 32.5532C55.524 30.5028 55.0309 28.4057 55.1039 26.2823C55.1861 23.8002 55.6913 22.1844 55.734 20.2652C55.0674 20.1777 54.2944 20.1252 53.5122 20.1252ZM53.8896 21.601L53.8865 21.6243C53.8865 21.6331 53.8865 21.6418 53.8865 21.6535C53.8865 21.7877 53.847 21.916 53.777 22.021L53.78 22.0181C53.6856 22.1844 53.5761 22.3302 53.4483 22.4556C53.15 22.7735 52.7513 22.9952 52.3008 23.071L52.2887 23.0739C52.2247 23.0827 52.1517 23.0856 52.0756 23.0856C51.6921 23.0856 51.3391 22.9689 51.0499 22.7706L51.056 22.7735C50.9069 22.6744 50.776 22.5606 50.6695 22.4323L50.6664 22.4294C50.5721 22.3302 50.5051 22.2019 50.4777 22.0648V22.0589C50.4777 22.0444 50.4747 22.0298 50.4747 22.0152C50.4747 21.8898 50.5234 21.7731 50.6056 21.6856C50.703 21.5777 50.8186 21.4902 50.9525 21.426L50.9586 21.4231C51.2478 21.2656 51.6373 21.1489 52.0786 21.0848C52.243 21.0614 52.4073 21.0498 52.5595 21.0468V21.0556H52.7087C52.9065 21.0614 53.0891 21.0818 53.2504 21.1198C53.4117 21.1548 53.5517 21.2073 53.6643 21.2802C53.777 21.3531 53.8622 21.4639 53.8896 21.601ZM20.0179 32.979C20.0179 32.454 20.0605 31.9407 20.1396 31.4361L20.1335 31.4915C20.444 29.3361 20.4866 27.3207 20.4501 25.7281C20.4135 24.1765 20.2979 23.1439 20.2979 22.4994C20.2979 22.4906 20.2979 22.4819 20.2979 22.4731C20.2979 22.4644 20.2979 22.4527 20.2979 22.4439V22.4294L20.2948 22.4119C20.2948 22.406 20.2948 22.4002 20.2948 22.3944C20.2948 18.941 20.9279 15.6305 22.0753 12.5593C22.9184 10.3892 24.1723 8.18714 26.0502 6.40213C24.2028 5.81296 20.9279 4.91461 17.3791 4.74545C17.0382 4.72795 16.6395 4.71628 16.2408 4.71628L16.2378 4.7192C15.8573 4.7192 15.4739 4.73086 15.0965 4.75128C12.059 4.92045 9.18588 5.77504 7.13453 7.88672C5.07709 9.99841 3.72271 13.4605 4.01793 19.1918C4.07576 20.2768 4.56273 23.316 5.39666 26.9269C6.23364 30.5378 7.41149 34.7874 8.82979 38.5412C10.2511 42.295 11.9738 45.5616 13.6112 47.1075C14.436 47.8804 15.1512 48.1925 15.7995 48.1663C16.4508 48.1371 17.2361 47.7725 18.1948 46.6554C20.0788 44.4562 21.8592 42.5108 23.6975 40.6208L23.6367 40.682C21.4149 38.8008 20.0179 36.0503 20.0179 32.979Z" fill="white"/>
<path id="Vector_3" d="M36.2065 4.57346V4.56763C32.6517 4.57638 30.1042 5.61764 28.1685 7.17807C26.175 8.791 24.8389 10.9989 23.9593 13.2594C22.9153 15.9427 22.5592 18.5386 22.4162 20.3003L22.4558 20.2769C23.5301 19.6936 24.9393 19.1103 26.4489 18.7719C27.9585 18.4336 29.5838 18.3315 31.0568 18.8857C32.5299 19.4398 33.7473 20.7436 34.1887 22.7211C36.3039 32.2208 33.5312 35.7529 32.5086 38.4188C32.183 39.1859 31.8451 40.1717 31.5621 41.178L31.5134 41.3734C31.6412 41.3442 31.7721 41.3092 31.8999 41.2975C32.6212 41.2392 33.1873 41.4725 33.5221 41.6125C34.5508 42.0267 35.2569 42.8959 35.6374 43.8876C35.7378 44.1472 35.8078 44.4272 35.8504 44.7159C35.89 44.8151 35.9113 44.9317 35.9113 45.0513C35.9113 45.063 35.9113 45.0747 35.9113 45.0863C35.8626 46.5447 35.8322 48.2568 35.8322 49.9776C35.8322 52.0164 35.8748 54.0464 35.9539 56.0677C36.0239 57.6019 36.1244 58.961 36.2491 60.0315C36.38 61.1223 36.5626 61.9477 36.6783 62.2277C37.0618 63.1611 37.6248 64.3832 38.6414 65.2144C39.6579 66.0428 41.1158 66.5969 43.7789 66.0428C46.0889 65.5615 47.5133 64.8936 48.466 63.934C49.4186 62.9744 49.9847 61.6386 50.3469 59.594C50.8917 56.5314 51.9843 47.6501 52.1182 45.9788C52.0574 44.7188 52.2491 43.7505 52.6661 43.0126C53.0922 42.2542 53.7557 41.7905 54.3248 41.5396C54.6109 41.4142 54.8787 41.3296 55.0979 41.2684C54.83 40.898 54.5896 40.5888 54.34 40.2884L54.3674 40.3204C53.5791 39.3988 52.9065 38.34 52.3982 37.1996L52.3647 37.115C52.0573 36.5054 51.7986 36.0446 51.5278 35.5925L51.5917 35.7062C51.193 35.0062 50.6877 34.1312 50.1582 33.1483C49.099 31.1795 47.9486 28.7937 47.349 26.4691C46.7524 24.1474 46.6672 21.744 48.1951 20.0494C49.5464 18.5444 51.9234 17.9202 55.4874 18.2703C55.384 17.964 55.32 17.7102 55.1405 17.3019C54.2731 15.3477 53.2291 13.6619 51.9904 12.1335C48.9681 8.39433 44.0832 4.69304 36.5413 4.57346H36.2065ZM33.8508 48.6097C33.8508 48.6447 33.8508 48.6768 33.8508 48.7118V48.6097Z" fill="white"/>
<path id="Vector_4" d="M30.6186 37.7334C31.8391 34.5425 34.2404 32.215 32.2195 23.1324C31.8878 21.6449 31.2334 21.044 30.3325 20.7057C29.8942 20.5511 29.386 20.4607 28.8533 20.4607C28.8199 20.4607 28.7833 20.4607 28.7499 20.4607H28.7559C28.1077 20.4665 27.4807 20.5453 26.8781 20.6853C25.5998 20.9944 24.4737 21.432 23.4267 21.992C23.0341 22.199 22.6962 22.4149 22.3797 22.657L22.3219 22.7095C22.3401 23.1353 22.4254 24.1678 22.4619 25.6874C22.4984 27.3499 22.4558 29.4704 22.124 31.7658C21.4058 36.7533 25.1372 40.8834 29.5199 40.8892C29.7786 39.8655 30.1986 38.8271 30.6186 37.7334ZM28.0285 23.2403C27.8855 23.1003 27.7698 22.9428 27.6755 22.7707L27.6694 22.759C27.5903 22.6365 27.5446 22.4878 27.5446 22.3274C27.5446 22.2982 27.5476 22.269 27.5507 22.2399C27.5963 21.9249 27.8642 21.7645 28.1229 21.674C28.3633 21.5982 28.6312 21.5545 28.9172 21.5545C28.9599 21.5545 29.0025 21.5545 29.0512 21.5574L29.0481 21.5457C29.2064 21.5457 29.3768 21.5603 29.5473 21.5836C30.0068 21.6449 30.4177 21.7645 30.7282 21.9395C30.8834 22.0211 31.0173 22.1232 31.1238 22.2457L31.1269 22.2486C31.2303 22.3624 31.2912 22.5111 31.2912 22.6774C31.2912 22.7007 31.2912 22.724 31.2882 22.7474C31.2577 22.9224 31.1756 23.0711 31.063 23.1936C30.9382 23.3395 30.7982 23.4649 30.6399 23.5699L30.6338 23.5728C30.3264 23.7886 29.9399 23.917 29.5229 23.917C29.4407 23.917 29.3586 23.9111 29.2794 23.9024H29.2886C28.7833 23.8207 28.3511 23.5816 28.0285 23.2403Z" fill="white"/>
<path id="Vector_5" d="M23.3658 22.021C23.3871 22.0093 23.4084 22.0035 23.4267 21.9918C23.4297 21.9918 23.4327 21.9889 23.4358 21.986L23.3658 22.021ZM53.6126 10.9434C54.9305 12.5621 56.0718 14.4055 56.9514 16.383L57.0153 16.5434C57.347 17.3134 57.5692 17.9638 57.694 18.4684C57.7579 18.7222 57.8005 18.9351 57.8157 19.1568C57.8218 19.2676 57.8279 19.3813 57.7792 19.5768C57.7792 19.5855 57.764 19.6059 57.761 19.6147C57.8523 22.1697 57.1979 23.9022 57.1218 26.3406C57.0609 28.1081 57.5266 30.1848 57.6423 32.451C57.7518 34.5802 57.487 36.9194 56.0596 39.2149C56.1814 39.3549 56.2879 39.4949 56.4035 39.6349C60.1745 33.8744 62.8924 27.5014 64.3411 22.0676C65.1172 19.1422 65.5281 16.4909 65.5646 14.3909C65.5951 12.2909 65.1903 10.7683 64.6789 10.1325C60.6432 5.12747 55.1861 3.85287 50.6086 3.81787L50.1703 3.82079C48.4051 3.84704 46.7007 4.04246 45.0541 4.38371C48.7916 5.99372 51.6221 8.47291 53.6126 10.9434Z" fill="white"/>
<path id="Vector_6" d="M36.7087 0.752507H36.6783C33.1356 0.694173 30.0951 1.52835 27.6389 2.91669C25.2224 2.10294 20.2096 0.700006 14.923 0.980009C11.2433 1.17543 7.22585 2.26044 4.24925 5.30838C1.28179 8.35633 -0.285638 13.0726 0.0430654 19.4893C0.134372 21.2598 0.654819 24.1473 1.51614 27.8865C2.38051 31.6257 3.59185 36.0037 5.10449 39.9966C6.61714 43.9925 8.27283 47.58 10.8629 50.0184C12.1564 51.2405 13.9369 52.2671 16.0339 52.1826C17.507 52.1242 18.837 51.4971 19.9875 50.5725C20.5475 51.2871 21.144 51.5992 21.6888 51.888C22.3736 52.2526 23.0401 52.5005 23.731 52.6638C24.9728 52.9642 27.0972 53.3667 29.5868 52.9555C30.436 52.8184 31.3277 52.5501 32.2164 52.168C32.2499 53.1305 32.2895 54.0726 32.326 55.0263C32.4508 58.048 32.5269 60.8393 33.4613 63.2864C33.6104 63.686 34.0243 65.7452 35.6465 67.5623C37.2687 69.3823 40.4523 70.5169 44.0741 69.7644C46.6307 69.2335 49.8782 68.2769 52.0391 65.296C54.1726 62.3501 55.1344 58.1239 55.3261 51.2696C55.3748 50.8992 55.4327 50.5842 55.4905 50.2896L55.9988 50.3334H56.0596C58.7867 50.453 61.745 50.0767 64.2164 48.9625C66.4047 47.9796 68.0604 46.985 69.2686 45.2204C69.57 44.7829 69.8987 44.255 69.99 43.345C70.0813 42.435 69.5426 41.0116 68.6478 40.3554C66.8582 39.037 65.7351 39.5387 64.5298 39.7808C63.4555 40.0229 62.2137 40.1745 60.9415 40.2066H60.9171C64.3929 34.5278 66.8855 28.4961 68.3069 23.1585C69.1499 20.0085 69.6217 17.1035 69.6582 14.563C69.6978 12.0226 69.4847 9.77384 67.9143 7.8284C63.0111 1.75002 56.1175 0.0700006 50.7821 0.0116668C50.6178 0.00875008 50.4504 0.00583339 50.286 0.00875008V0C47.3825 0.0233335 44.5885 0.443337 41.9436 1.19293L41.8189 1.23376C40.291 0.959592 38.5166 0.78459 36.7087 0.752507ZM43.9189 2.61044C45.7816 2.17002 47.9242 1.9046 50.1278 1.87835H50.146L50.1491 1.86668C55.1953 1.82002 61.6385 3.19378 66.2677 8.93091C67.3086 10.2201 67.619 12.1043 67.5825 14.426C67.543 16.7447 67.1016 19.5214 66.2921 22.5635C64.7216 28.4553 61.7572 35.3241 57.5814 41.487C57.7184 41.5833 57.8766 41.6679 58.041 41.732L58.0562 41.7379C58.9267 42.0879 60.9141 42.3883 64.8798 41.5979C65.8781 41.3937 66.6086 41.2566 67.3664 41.8166C67.7073 42.0966 67.9203 42.5108 67.9203 42.9746C67.9203 43.0037 67.9204 43.0329 67.9173 43.0621V43.0591C67.8717 43.4296 67.7347 43.7621 67.5247 44.0391C66.7577 45.1562 65.2451 46.215 63.3094 47.0871C61.5928 47.8629 59.1306 48.2683 56.9484 48.2917C55.8527 48.3033 54.8453 48.2217 53.987 47.9621L53.9322 47.9417C53.6004 51.0334 52.8396 57.138 52.3435 59.9235C51.9478 62.1693 51.2539 63.9543 49.9269 65.2902C48.6029 66.626 46.7311 67.431 44.2111 67.956C41.0914 68.6065 38.8149 67.9064 37.3479 66.7077C35.8839 65.5118 35.2143 63.9252 34.8096 62.9539C34.5326 62.2831 34.3895 61.4139 34.2495 60.253C34.1095 59.0922 34.0091 57.6718 33.9391 56.0705C33.8721 54.443 33.8356 52.5296 33.8356 50.6075C33.8356 49.9746 33.8417 49.3446 33.8478 48.7117C32.5908 49.8317 31.0021 50.6192 29.2368 50.9196L29.182 50.9284C27.1094 51.2696 25.2619 50.9342 24.1571 50.6659C23.5697 50.523 23.0584 50.3217 22.5775 50.0709C22.0723 49.8084 21.5914 49.5079 21.2688 48.9217C21.141 48.6971 21.0649 48.4258 21.0649 48.14C21.0649 48.0263 21.077 47.9125 21.1014 47.8075C21.211 47.4167 21.4392 47.0842 21.7527 46.8508L21.7558 46.8479C22.3523 46.3783 23.1375 46.1158 24.3276 45.8767C26.4885 45.445 27.2433 45.1504 27.7029 44.7975C28.0924 44.4942 28.5368 43.8816 29.3159 42.9833C29.3129 42.9571 29.3099 42.9133 29.3068 42.8725V42.8637C27.8337 42.8229 26.4611 42.4408 25.2619 41.7962L25.3076 41.8195C24.8571 42.2804 22.5532 44.6429 19.747 47.9213C18.5661 49.2921 17.2604 50.0796 15.8848 50.135C14.5091 50.1904 13.2643 49.5196 12.2051 48.525C10.0898 46.5329 8.4037 43.1058 6.93367 39.2324C5.46667 35.3591 4.2736 31.0453 3.42445 27.3702C2.57226 23.6952 2.07311 20.7319 2.00007 19.3027C1.68354 13.2301 3.14749 9.138 5.65842 6.55673C8.17239 3.97545 11.6177 2.99836 14.9747 2.81169C21.004 2.47627 26.7259 4.51504 27.8855 4.95254C30.1194 3.48253 32.9956 2.56669 36.5839 2.62502C38.3918 2.65127 40.1297 2.88169 41.7915 3.29295L41.6393 3.26086L41.7002 3.23461C42.2815 3.02461 43.0241 2.81169 43.785 2.63669L43.9189 2.61044Z" fill="white"/>
</g>
</svg>
