<svg width="70" height="70" viewBox="0 0 70 70" fill="none" xmlns="http://www.w3.org/2000/svg">
<g id="Group 49">
<path id="Vector" d="M0 52.3825C0 53.2059 0.974126 54.0805 2.82905 55.1149C6.53889 57.1839 27.1326 66.8888 30.3846 68.7025C33.6394 70.5196 35.926 70.5435 40.0471 68.0356C44.1652 65.5311 63.5165 56.2481 67.2526 53.975C69.1513 52.8214 69.9912 51.9231 69.9912 51.1098C69.9912 50.3408 69.9942 42.9702 69.9942 42.9702L69.9796 42.9634C69.9504 43.7426 69.0667 44.6138 67.2526 45.7197C63.5165 47.9894 44.1652 57.2758 40.0471 59.7803C35.9289 62.2847 33.6394 62.2609 30.3846 60.4438C27.1297 58.6301 6.53889 48.9218 2.82905 46.8562C0.977043 45.8218 0.032082 44.9506 0 44.1272V52.3825Z" fill="white"/>
<path id="Vector_2" d="M0 38.9245C0 39.7479 0.974126 40.6191 2.82905 41.6535C6.53889 43.7225 27.1297 53.4274 30.3846 55.2411C33.6394 57.0582 35.926 57.082 40.0471 54.5775C44.1652 52.0731 63.5165 42.7867 67.2526 40.517C69.1513 39.36 69.9912 38.4617 69.9912 37.6484C69.9912 36.8793 69.9942 29.5088 69.9942 29.5088C69.9912 29.5054 69.9825 29.5088 69.9767 29.5054C69.9446 30.2846 69.0638 31.1523 67.2526 32.2583C63.5165 34.528 44.1652 43.8143 40.0471 46.3188C35.9289 48.8233 33.6394 48.7995 30.3846 46.9858C27.1297 45.1721 6.53889 35.4638 2.82905 33.3948C0.977043 32.3638 0.032082 31.4892 0 30.6691L0 38.9245Z" fill="white"/>
<path id="Vector_3" d="M67.2089 13.1852C63.569 11.6301 44.3344 2.69759 40.6508 1.12207C36.9672 -0.453446 35.4681 -0.385389 31.14 1.42493C26.8118 3.23864 6.33183 12.6101 2.68906 14.2741C0.86622 15.1112 -0.0262422 15.8836 0.00583979 16.7071V24.9624C0.00583979 25.7859 0.979966 26.657 2.83489 27.6915C6.54473 29.7604 27.1355 39.4688 30.3904 41.2825C33.6453 43.0962 35.9318 43.12 40.0529 40.6155C44.1711 38.111 63.5224 28.8247 67.2585 26.555C69.1571 25.398 69.9971 24.4996 69.9971 23.6864C69.9971 22.9207 70 15.5467 70 15.5467H69.9767C70.0117 14.7164 69.0813 13.9882 67.2089 13.1852ZM32.7761 7.70318L31.207 4.32755L36.101 6.55982L40.715 4.79715L39.4667 8.28507L44.1682 10.3404L38.1047 11.0754L36.7456 14.8866L34.5523 10.6364L27.5497 9.90142L32.7761 7.70318ZM12.022 16.3838C12.022 14.2196 15.9039 12.4638 20.6929 12.4638C25.4819 12.4638 29.3609 14.2196 29.3609 16.3838C29.3609 18.5481 25.4789 20.3039 20.6929 20.3039C15.9068 20.3039 12.022 18.5446 12.022 16.3838ZM36.3839 28.8349L25.0648 23.3597L41.2837 20.4536L36.3839 28.8349ZM50.3046 20.7089L40.7179 16.2886L51.34 11.3885L60.9354 15.8122L50.3046 20.7089Z" fill="white"/>
</g>
</svg>
