<svg width="73" height="70" viewBox="0 0 73 70" fill="none" xmlns="http://www.w3.org/2000/svg">
<g id="Group 48">
<g id="Group 47">
<path id="Path 53" d="M20.5719 25.4238C20.5531 26.5936 20.6431 27.7614 20.839 28.8888C21.0547 29.8528 21.3145 30.79 21.6161 31.6928C21.7242 31.9597 21.7831 32.2701 21.7862 32.5883C21.7862 32.9775 21.6404 33.3672 21.3248 33.7562L19.7953 35.3914C19.6108 35.6045 19.3913 35.7263 19.1641 35.7417C18.8876 35.7112 18.628 35.517 18.4358 35.1967C18.1085 34.633 17.8157 34.0203 17.5614 33.367C17.3187 32.7051 17.0757 31.965 16.8088 31.0699C14.9151 34.651 12.5357 36.4416 9.6706 36.4416C7.63047 36.4416 6.00448 35.5069 4.81482 33.6376C3.62517 31.7682 3.01813 29.278 3.01813 26.1635C3.01813 22.8543 3.74647 20.168 5.22757 18.1436C6.70867 16.1191 8.6751 15.1068 11.1758 15.1068C12.0371 15.118 12.8969 15.2221 13.7495 15.4183C14.6478 15.613 15.5704 15.9244 16.5415 16.2749V13.4328C16.5415 10.473 16.1529 8.41071 15.4004 7.20364C14.6232 5.9968 13.3124 5.41285 11.4429 5.41285C10.5593 5.41279 9.67898 5.58269 8.82068 5.91891C7.92815 6.25988 7.05188 6.70222 6.1985 7.24259C5.92239 7.44068 5.63853 7.60972 5.34873 7.74865C5.22301 7.81511 5.09233 7.85441 4.96013 7.86548C4.62025 7.86548 4.45024 7.47626 4.45024 6.65864V4.75101C4.45024 4.1279 4.49881 3.66056 4.62025 3.38839C4.80346 3.03352 5.03651 2.75333 5.30029 2.57077C6.2741 1.79816 7.30077 1.21024 8.3595 0.818928C9.59666 0.309901 10.8699 0.0612367 12.1471 0.0791998C15.0368 0.0791998 17.1486 1.13026 18.5082 3.23261C19.8436 5.33496 20.5234 8.52732 20.5234 12.8099V25.4238H20.5719ZM10.7147 31.3414C11.5664 31.3264 12.411 31.0897 13.2154 30.6406C14.1065 30.1463 14.9016 29.2871 15.5219 28.1481C15.9132 27.4305 16.1958 26.5775 16.3474 25.6557C16.5142 24.5468 16.5957 23.4093 16.5901 22.2686V20.6351C15.8539 20.3478 15.1083 20.1268 14.3568 19.9733C13.5997 19.8195 12.8373 19.7418 12.0742 19.7407C10.4475 19.7407 9.25785 20.2468 8.45665 21.2985C7.65545 22.3503 7.267 23.8291 7.267 25.7756C7.267 27.6054 7.55844 28.968 8.16535 29.9024C8.74824 30.8758 9.59787 31.3429 10.7147 31.3429V31.3414ZM30.2108 35.5461C29.7737 35.5461 29.4824 35.4293 29.2881 35.1569C29.0938 34.9232 28.924 34.378 28.7782 33.6385L23.0724 3.54417C22.9618 3.04042 22.8885 2.51757 22.854 1.98638C22.854 1.36326 23.0483 1.01298 23.4369 1.01298H25.8162C26.2775 1.01298 26.5933 1.12982 26.7631 1.40221C26.9574 1.63588 27.103 2.1811 27.2488 2.92061L31.3277 28.6934L35.1151 2.92128C35.2365 2.14238 35.3821 1.63655 35.5764 1.40288C35.7707 1.16921 36.1106 1.01365 36.5479 1.01365H38.4909C38.9522 1.01365 39.2681 1.13049 39.4624 1.40288C39.6567 1.63655 39.8265 2.18177 39.9237 2.92128L43.7598 29.0056L47.9587 2.92128C48.1044 2.14238 48.2743 1.63655 48.4445 1.40288C48.6388 1.16921 48.9544 1.01365 49.3914 1.01365H51.6494C52.038 1.01365 52.2564 1.32521 52.2564 1.98705C52.2508 2.19652 52.2345 2.4049 52.2079 2.61016C52.1698 2.94226 52.1129 3.26808 52.0379 3.58356L46.1866 33.6779C46.041 34.4565 45.871 34.9626 45.6767 35.1963C45.4022 35.478 45.0795 35.6141 44.7541 35.5855H42.6659C42.2046 35.5855 41.8887 35.4686 41.6944 35.1963C41.5001 34.9239 41.3303 34.4174 41.2331 33.6385L37.4701 8.52732L33.731 33.5995C33.6096 34.3784 33.464 34.8843 33.2697 35.1573C33.0754 35.4304 32.7355 35.5465 32.2982 35.5465L30.2108 35.5461ZM61.4094 36.5972C60.1502 36.5993 58.8953 36.3641 57.6704 35.8964C56.4565 35.429 55.5095 34.923 54.8783 34.3386C54.4897 33.9883 54.2229 33.5989 54.1257 33.2481C54.0312 32.9044 53.9816 32.5333 53.98 32.1577V30.1735C53.98 29.3559 54.1743 28.9666 54.5385 28.9666C54.6871 28.9674 54.8347 29.0069 54.9755 29.0835C55.1212 29.1614 55.3397 29.3172 55.5825 29.4727C56.4401 30.0775 57.3354 30.5343 58.2533 30.8353C59.2043 31.1449 60.1721 31.3014 61.1425 31.3027C62.672 31.3027 63.8618 30.8745 64.6873 30.0179C65.0828 29.6353 65.408 29.0915 65.6298 28.4418C65.8517 27.7922 65.9622 27.0599 65.9503 26.3195C65.9588 25.8183 65.9053 25.3194 65.7927 24.8516C65.6802 24.3838 65.511 23.9565 65.2948 23.5943C64.8577 22.8545 64.0318 22.1923 62.8426 21.5691L59.3214 19.8175C57.549 18.9222 56.2379 17.5986 55.4368 15.8463C54.6552 14.2305 54.2284 12.2459 54.2229 10.2011C54.2031 8.69363 54.4291 7.20404 54.8783 5.87952C55.3121 4.62701 55.9084 3.53837 56.627 2.68716C57.3837 1.76854 58.2398 1.08197 59.1521 0.662036C60.146 0.20331 61.1764 -0.0192986 62.2106 0.00131024C62.7544 -0.00501109 63.2978 0.0470316 63.8373 0.157089C64.3957 0.273924 64.9059 0.429703 65.4154 0.585259C65.9011 0.779983 66.3623 0.974484 66.7993 1.20838C67.1536 1.3841 67.4954 1.61899 67.8191 1.90916C68.105 2.14033 68.3541 2.47328 68.5475 2.88256C68.7053 3.2614 68.782 3.71237 68.7659 4.16729V5.99702C68.7659 6.81464 68.5716 7.24326 68.2074 7.24326C68.0131 7.24326 67.6975 7.08748 67.2848 6.77592C65.9008 5.76365 64.347 5.25752 62.6232 5.25752C61.2392 5.25752 60.1467 5.6078 59.3941 6.34797C58.6415 7.08814 58.253 8.21732 58.253 9.81294C58.2464 10.3299 58.3078 10.8433 58.4333 11.3196C58.5588 11.7959 58.7456 12.2244 58.9814 12.5771C59.4671 13.3169 60.3653 14.0566 61.6521 14.7184L65.0998 16.4694C66.8485 17.3649 68.1104 18.6107 68.8631 20.2067C69.6041 21.7729 69.9973 23.6915 69.9798 25.6572C69.9924 27.221 69.7762 28.7677 69.3487 30.1733C68.9178 31.5058 68.3134 32.6742 67.5762 33.5993C66.7747 34.5998 65.8593 35.3406 64.8812 35.7802C63.7566 36.3348 62.5858 36.6106 61.4092 36.5978L61.4094 36.5972Z" fill="white"/>
<path id="Path 54" d="M65.9982 55.5175C58.0103 64.978 46.4049 70.0001 36.4262 70.0001C22.4414 70.001 9.8405 61.7084 0.323395 47.9266C-0.429231 46.8362 0.250533 45.3572 1.14888 46.2131C11.4432 55.7904 24.1412 61.5907 37.2761 61.5907C46.1381 61.5907 55.8739 58.6309 64.8329 52.5584C66.1683 51.585 67.3094 53.9604 65.9987 55.5182L65.9982 55.5175Z" fill="white"/>
</g>
<path id="Path 55" d="M69.3244 49.4448C68.3046 47.3425 62.5748 48.4327 59.9769 48.9388C59.1997 49.0946 59.0785 48.0041 59.7826 47.1869C64.347 42.048 71.8493 43.5272 72.7234 45.2404C73.5977 46.9922 72.4806 59.0221 68.2075 64.7842C67.552 65.6797 66.9207 65.2124 67.212 64.0445C68.1833 60.19 70.3442 51.5082 69.3244 49.4448Z" fill="white"/>
</g>
</svg>
