<svg width="70" height="70" viewBox="0 0 70 70" fill="none" xmlns="http://www.w3.org/2000/svg">
<g id="Group 52">
<ellipse id="Ellipse 1" cx="35.2023" cy="34.5954" rx="29.9422" ry="29.7399" fill="#D9D9D9"/>
<path id="Vector" d="M39.4535 0.288208C20.285 -2.17058 2.74702 11.3746 0.288256 30.5462C-2.17051 49.7148 11.3716 67.2501 30.543 69.7118C49.7143 72.1706 67.2582 58.6254 69.7111 39.4538C72.1728 20.2852 58.6306 2.74991 39.4535 0.288208ZM46.6606 22.1198C45.9839 22.1285 45.3743 22.4056 44.931 22.849L31.943 35.8371L29.1722 33.0662C41.9735 20.3027 44.2835 20.1802 46.6606 22.1198ZM32.4768 36.2979L45.4268 23.3477C45.7564 23.0036 46.2202 22.7877 46.7364 22.7877C47.7339 22.7877 48.5448 23.5986 48.5448 24.5961C48.5448 25.1503 48.2939 25.649 47.9002 25.9786L47.8973 25.9815L34.1918 38.013L32.4768 36.2979ZM33.4393 38.3221L30.2309 39.0163C30.2192 39.0192 30.2047 39.0192 30.193 39.0192C30.1259 39.0192 30.0647 38.9813 30.0355 38.923C30.0209 38.8967 30.0122 38.8676 30.0122 38.8355C30.0122 38.7859 30.0326 38.7421 30.0647 38.7101L31.9459 36.8288L33.4393 38.3221ZM25.2638 36.9834L28.6821 33.565L31.2459 36.1258L25.4738 37.3684C25.4563 37.3713 25.4388 37.3742 25.4184 37.3742C25.3338 37.3742 25.2609 37.3246 25.2259 37.2546C25.2055 37.2225 25.1938 37.1846 25.1938 37.1409C25.1938 37.0796 25.22 37.0213 25.2638 36.9834ZM14.6296 54.6499C14.5158 54.6411 14.4283 54.5478 14.4283 54.4311C14.4283 54.4224 14.4283 54.4166 14.4283 54.4078C14.4342 54.3553 14.4575 54.3086 14.4925 54.2736H14.4983L17.2575 51.5144L20.8217 55.0787L14.6296 54.6499ZM21.7055 50.9894C21.4867 51.1032 21.3438 51.3248 21.3438 51.5815C21.3438 51.6369 21.3496 51.6894 21.3642 51.7419V51.7361L21.9563 54.2591C21.9621 54.2853 21.968 54.3145 21.968 54.3466C21.968 54.5478 21.8046 54.7111 21.6034 54.7111C21.5013 54.7111 21.4079 54.6703 21.3409 54.6003H21.3321L17.7504 51.0157L28.723 40.0547L34.0313 38.9084L36.5805 41.4576C32.9201 44.6718 27.9151 47.8773 21.7055 50.9894ZM37.0997 40.9909H37.0939L34.6468 38.5438L48.3522 26.5124C48.4777 26.3986 48.5914 26.279 48.6935 26.1478L48.6993 26.1419C48.2706 30.0649 42.7814 35.6067 37.0997 40.9909ZM51.5139 23.7007C50.0498 23.7007 48.7256 23.1086 47.766 22.149L47.7602 22.1431C46.8035 21.1835 46.2114 19.8564 46.2114 18.3952C46.2114 15.4609 48.5914 13.0809 51.5256 13.0809C52.8264 13.0809 54.0165 13.5476 54.9381 14.3234L54.9294 14.3176L50.2335 19.0222C50.1693 19.0864 50.1314 19.171 50.1314 19.2673C50.1314 19.3635 50.1693 19.451 50.2335 19.5123L53.8706 23.1494C53.1823 23.4965 52.3714 23.7007 51.5139 23.7007ZM55.2881 22.149C55.0519 22.3823 54.7952 22.5894 54.5152 22.7731L54.4977 22.7848L50.9743 19.2643L55.4456 14.793C57.3736 16.8931 57.3035 20.1364 55.2881 22.149Z" fill="#303B3C"/>
</g>
</svg>
