<svg width="70" height="70" viewBox="0 0 70 70" fill="none" xmlns="http://www.w3.org/2000/svg">
<g id="Group 81">
<path id="Vector" d="M34.7478 0C16.9774 0 18.087 7.74658 18.087 7.74658L18.1067 15.7723H35.0647V18.1818H11.3713C11.3713 18.1818 0 16.8854 0 34.9094C0 52.9338 9.92513 52.2946 9.92513 52.2946H15.8484V43.9305C15.8484 43.9305 15.5291 33.9535 25.6151 33.9535H42.4344C42.4344 33.9535 51.884 34.107 51.884 24.7731V9.33999C51.884 9.33999 53.3191 0 34.7478 0ZM25.3972 5.39712C25.7979 5.39676 26.1948 5.47583 26.5651 5.62982C26.9354 5.78381 27.2718 6.00968 27.5552 6.29452C27.8386 6.57936 28.0633 6.91757 28.2164 7.2898C28.3696 7.66203 28.4483 8.06097 28.4479 8.46379C28.4483 8.86662 28.3696 9.26556 28.2164 9.63779C28.0633 10.01 27.8386 10.3482 27.5552 10.6331C27.2718 10.9179 26.9354 11.1438 26.5651 11.2978C26.1948 11.4518 25.7979 11.5308 25.3972 11.5305C24.9965 11.5308 24.5996 11.4518 24.2293 11.2978C23.859 11.1438 23.5226 10.9179 23.2392 10.6331C22.9559 10.3482 22.7312 10.01 22.578 9.63779C22.4248 9.26556 22.3461 8.86662 22.3465 8.46379C22.3461 8.06097 22.4248 7.66203 22.578 7.2898C22.7312 6.91757 22.9559 6.57936 23.2392 6.29452C23.5226 6.00968 23.859 5.78381 24.2293 5.62982C24.5996 5.47583 24.9965 5.39676 25.3972 5.39712Z" fill="url(#paint0_linear_133_205)"/>
<path id="Vector_2" d="M35.2524 70C53.0228 70 51.9133 62.2535 51.9133 62.2535L51.8936 54.228H34.9353V51.8185H58.6287C58.6287 51.8185 70 53.1149 70 35.0904C70 17.0662 60.0749 17.7054 60.0749 17.7054H54.1516V26.0692C54.1516 26.0692 54.4709 36.0462 44.3849 36.0462H27.5656C27.5656 36.0462 18.116 35.8928 18.116 45.227V60.6603C18.116 60.6603 16.6811 70 35.2522 70H35.2524ZM44.6031 64.6035C44.2023 64.6038 43.8055 64.5248 43.4352 64.3708C43.0649 64.2168 42.7284 63.9909 42.4451 63.7061C42.1617 63.4212 41.937 63.083 41.7838 62.7108C41.6306 62.3386 41.552 61.9396 41.5523 61.5368C41.5519 61.134 41.6306 60.735 41.7837 60.3627C41.9369 59.9905 42.1616 59.6522 42.445 59.3673C42.7283 59.0825 43.0648 58.8566 43.4351 58.7026C43.8054 58.5486 44.2023 58.4695 44.6031 58.4699C45.0038 58.4695 45.4007 58.5486 45.771 58.7025C46.1412 58.8565 46.4777 59.0824 46.7611 59.3673C47.0444 59.6521 47.2691 59.9903 47.4223 60.3625C47.5755 60.7348 47.6542 61.1337 47.6538 61.5365C47.6542 61.9393 47.5755 62.3383 47.4223 62.7105C47.2691 63.0827 47.0444 63.421 46.7611 63.7058C46.4777 63.9906 46.1412 64.2165 45.771 64.3705C45.4007 64.5245 45.0038 64.6038 44.6031 64.6035Z" fill="url(#paint1_linear_133_205)"/>
</g>
<defs>
<linearGradient id="paint0_linear_133_205" x1="672.698" y1="629.608" x2="4159.59" y2="4063.76" gradientUnits="userSpaceOnUse">
<stop stop-color="#FEFEFF"/>
<stop offset="1" stop-color="#366994"/>
</linearGradient>
<linearGradient id="paint1_linear_133_205" x1="1011.02" y1="1093.93" x2="4754.64" y2="4614.49" gradientUnits="userSpaceOnUse">
<stop stop-color="#FFFEFB"/>
<stop offset="1" stop-color="#FFC331"/>
</linearGradient>
</defs>
</svg>
