<svg width="70" height="70" viewBox="0 0 70 70" fill="none" xmlns="http://www.w3.org/2000/svg">
<g id="Group 45">
<path id="Vector" d="M70 17.675L55.2546 17.6721V40.2675C55.2546 50.225 54.5849 54.0167 52.4811 57.2863C50.4719 60.4829 47.3124 62.5684 40.7968 64.9454L54.4865 70C60.9984 67.4742 64.1616 65.17 66.5492 61.5271C69.1373 57.7384 69.9962 53.3517 69.9962 44.2109L70 17.675Z" fill="white"/>
<path id="Vector_2" d="M46.5367 52.9812V0H31.7951V17.4533C29.593 17.0071 27.7692 16.8583 25.3778 16.8583C9.95513 16.8583 0 24.4387 0 36.1083C0 48.2242 9.38 54.5417 27.387 54.5417C33.4184 54.5446 38.973 54.0983 46.5367 52.9812ZM15.0368 35.8867C15.0368 29.6421 19.3427 26.075 26.8157 26.075H26.7968L27.107 26.0721C28.7832 26.0721 30.3913 26.2908 31.7913 26.67V45.0275C29.6838 45.2521 28.3443 45.325 26.7173 45.325C19.1497 45.3221 15.0368 41.9825 15.0368 35.8867Z" fill="white"/>
<path id="Vector_3" d="M70 35H55.2546V40.2704C55.2546 50.2279 54.5849 54.0196 52.4811 57.2892C50.4719 60.4858 47.3124 62.5712 40.7967 64.9483L54.4865 70C60.9984 67.4742 64.1616 65.17 66.5492 61.5271C69.1373 57.7383 69.9962 53.3517 69.9962 44.2108L70 35ZM46.5367 35H31.7951V45.0275C29.6876 45.2521 28.3481 45.325 26.7211 45.325C19.1535 45.325 15.0368 41.9825 15.0368 35.8896C15.0368 35.5863 15.0481 35.2917 15.067 35.0029H0.0302699C0.011351 35.3675 0 35.7379 0 36.1112C0 48.2271 9.38 54.5446 27.387 54.5446C33.4184 54.5446 38.973 54.0983 46.5367 52.9842V35Z" fill="#D9D9D9"/>
<path id="Vector_4" d="M70 0.0612793H55.2546V11.8067H70V0.0612793Z" fill="white"/>
<path id="Vector_5" d="M62.6292 0.0612793H55.2546V11.8067H62.6292V0.0612793Z" fill="#D9D9D9"/>
</g>
</svg>
