<svg width="70" height="98" viewBox="0 0 70 98" fill="none" xmlns="http://www.w3.org/2000/svg">
<path d="M0 0L6.375 63L35 70L63.615 63.0044L70 0H0Z" fill="#2F3C3D"/>
<path d="M56.37 20.602L55.565 28.5164L53.135 52.242L35 56.6301L34.985 56.6345L16.86 52.242L15.595 39.8345H24.475L25.135 46.2701L34.99 48.5976L34.995 48.5933L44.865 46.2658L46.21 35.5426L15.17 35.617L14.29 28.2845L46.955 27.9476L47.615 20.0989L13.415 20.182L12.84 12.8801H57.16L56.37 20.602Z" fill="#FAFAFA"/>
<path d="M14.45 97.25C12.5611 97.25 11.0944 96.6556 10.05 95.4667C9.01667 94.2778 8.5 92.6222 8.5 90.5C8.5 88.4 9.01111 86.75 10.0333 85.55C11.0556 84.35 12.5222 83.75 14.4333 83.75C15.5778 83.75 16.5556 83.9667 17.3667 84.4C18.1778 84.8222 18.8111 85.4111 19.2667 86.1667C19.7222 86.9222 19.9889 87.7889 20.0667 88.7667H17.2833C17.1944 87.8556 16.9 87.1444 16.4 86.6333C15.9 86.1111 15.25 85.85 14.45 85.85C13.4389 85.85 12.6778 86.2556 12.1667 87.0667C11.6556 87.8778 11.4 89.0278 11.4 90.5167C11.4 92.0611 11.6611 93.2222 12.1833 94C12.7167 94.7667 13.4667 95.15 14.4333 95.15C15.2667 95.15 15.9278 94.8833 16.4167 94.35C16.9167 93.8167 17.2056 93.1111 17.2833 92.2333H20.0667C19.9889 93.2111 19.7222 94.0778 19.2667 94.8333C18.8111 95.5889 18.1778 96.1833 17.3667 96.6167C16.5667 97.0389 15.5944 97.25 14.45 97.25ZM28.15 97.25C27.1389 97.25 26.2833 97.1167 25.5833 96.85C24.8944 96.5722 24.3333 96.2111 23.9 95.7667C23.4778 95.3222 23.1611 94.8389 22.95 94.3167C22.75 93.7833 22.6333 93.2611 22.6 92.75H25.2C25.2222 93.15 25.3444 93.5333 25.5667 93.9C25.7889 94.2667 26.1222 94.5667 26.5667 94.8C27.0111 95.0333 27.5667 95.15 28.2333 95.15C28.9556 95.15 29.4889 95.0056 29.8333 94.7167C30.1889 94.4167 30.3667 94.0278 30.3667 93.55C30.3667 93.0944 30.2111 92.7222 29.9 92.4333C29.6 92.1444 29.2 91.9167 28.7 91.75L26.8167 91.1167C26.2167 90.9167 25.6389 90.6722 25.0833 90.3833C24.5389 90.0833 24.0889 89.6944 23.7333 89.2167C23.3778 88.7278 23.2 88.1056 23.2 87.35C23.2 86.5722 23.3944 85.9167 23.7833 85.3833C24.1833 84.85 24.7278 84.4444 25.4167 84.1667C26.1167 83.8889 26.9167 83.75 27.8167 83.75C28.9722 83.75 29.8833 83.9444 30.55 84.3333C31.2167 84.7222 31.7 85.2167 32 85.8167C32.3111 86.4056 32.5 87.0222 32.5667 87.6667H29.9667C29.9444 87.3556 29.8556 87.0611 29.7 86.7833C29.5556 86.4944 29.3222 86.2611 29 86.0833C28.6778 85.9056 28.2444 85.8167 27.7 85.8167C27.0889 85.8167 26.6333 85.9444 26.3333 86.2C26.0444 86.4556 25.9 86.7778 25.9 87.1667C25.9 87.5889 26.05 87.9278 26.35 88.1833C26.6611 88.4389 27.0722 88.6556 27.5833 88.8333L29.4667 89.4667C30.0778 89.6667 30.6556 89.9167 31.2 90.2167C31.7444 90.5167 32.1889 90.9167 32.5333 91.4167C32.8889 91.9056 33.0667 92.55 33.0667 93.35C33.0667 94.5611 32.6333 95.5167 31.7667 96.2167C30.9111 96.9056 29.7056 97.25 28.15 97.25ZM41.4102 97.25C40.399 97.25 39.5435 97.1167 38.8435 96.85C38.1546 96.5722 37.5935 96.2111 37.1602 95.7667C36.7379 95.3222 36.4213 94.8389 36.2102 94.3167C36.0102 93.7833 35.8935 93.2611 35.8602 92.75H38.4602C38.4824 93.15 38.6046 93.5333 38.8268 93.9C39.049 94.2667 39.3824 94.5667 39.8268 94.8C40.2713 95.0333 40.8268 95.15 41.4935 95.15C42.2157 95.15 42.749 95.0056 43.0935 94.7167C43.449 94.4167 43.6268 94.0278 43.6268 93.55C43.6268 93.0944 43.4713 92.7222 43.1602 92.4333C42.8602 92.1444 42.4602 91.9167 41.9602 91.75L40.0768 91.1167C39.4768 90.9167 38.899 90.6722 38.3435 90.3833C37.799 90.0833 37.349 89.6944 36.9935 89.2167C36.6379 88.7278 36.4602 88.1056 36.4602 87.35C36.4602 86.5722 36.6546 85.9167 37.0435 85.3833C37.4435 84.85 37.9879 84.4444 38.6768 84.1667C39.3768 83.8889 40.1768 83.75 41.0768 83.75C42.2324 83.75 43.1435 83.9444 43.8102 84.3333C44.4768 84.7222 44.9602 85.2167 45.2602 85.8167C45.5713 86.4056 45.7602 87.0222 45.8268 87.6667H43.2268C43.2046 87.3556 43.1157 87.0611 42.9602 86.7833C42.8157 86.4944 42.5824 86.2611 42.2602 86.0833C41.9379 85.9056 41.5046 85.8167 40.9602 85.8167C40.349 85.8167 39.8935 85.9444 39.5935 86.2C39.3046 86.4556 39.1602 86.7778 39.1602 87.1667C39.1602 87.5889 39.3102 87.9278 39.6102 88.1833C39.9213 88.4389 40.3324 88.6556 40.8435 88.8333L42.7268 89.4667C43.3379 89.6667 43.9157 89.9167 44.4602 90.2167C45.0046 90.5167 45.449 90.9167 45.7935 91.4167C46.149 91.9056 46.3268 92.55 46.3268 93.35C46.3268 94.5611 45.8935 95.5167 45.0268 96.2167C44.1713 96.9056 42.9657 97.25 41.4102 97.25ZM54.2536 97.2167C53.4092 97.2167 52.6703 97.1 52.037 96.8667C51.4148 96.6333 50.8925 96.3167 50.4703 95.9167C50.0592 95.5167 49.7536 95.0667 49.5536 94.5667C49.3536 94.0667 49.2536 93.5444 49.2536 93H51.887C51.9425 93.5556 52.1592 94.05 52.537 94.4833C52.9259 94.9056 53.4981 95.1167 54.2536 95.1167C54.9648 95.1167 55.4981 94.9278 55.8536 94.55C56.2092 94.1722 56.387 93.7167 56.387 93.1833C56.387 92.4944 56.1092 91.9611 55.5536 91.5833C54.9981 91.1944 54.2481 91 53.3036 91H52.7203V89.1667L54.187 87.6C54.387 87.3889 54.587 87.1889 54.787 87C54.9981 86.8111 55.2148 86.6444 55.437 86.5V86.1H49.987V84H58.487V86.2L55.5203 89.1167V89.5167C56.6203 89.6833 57.487 90.0667 58.1203 90.6667C58.7648 91.2667 59.087 92.0889 59.087 93.1333C59.087 93.9556 58.887 94.6722 58.487 95.2833C58.087 95.8944 57.5259 96.3722 56.8036 96.7167C56.0814 97.05 55.2314 97.2167 54.2536 97.2167Z" fill="white"/>
</svg>
