<svg width="76" height="98" viewBox="0 0 76 98" fill="none" xmlns="http://www.w3.org/2000/svg">
<rect x="15.1545" y="13.4863" width="53.713" height="40.4587" fill="white"/>
<path d="M60.684 20.5188L61.5163 12.8625H15.5301L17.975 36.225H49.8117L48.6672 46.2L38.4191 48.5188L28.2231 46.2L27.5468 40.075H18.4432L19.5877 52.2375L38.4191 56.6125H38.6272V56.5687L57.3026 52.2375L59.9037 28.4375H26.4024L25.6221 20.5188H60.684ZM1.90067 0H75.1457L68.4871 62.9125L38.4191 70L8.5593 62.9125L1.90067 0Z" fill="#303B3C"/>
<path d="M2.12098 97V84H4.92098V88.95H10.4543V84H13.2543V97H10.4543V91.2167H4.92098V97H2.12098ZM20.4762 97V86.2H16.6262V84H27.1262V86.2H23.2762V97H20.4762ZM30.4968 97V84H35.4301L37.8468 94.8H38.4468L40.8634 84H45.7968V97H43.1968V86.3H42.7634L40.3968 97H35.7634L33.3968 86.3H32.9634V97H30.4968ZM49.9288 97V84H52.7288V94.8H58.1621V97H49.9288ZM65.8455 97.2C64.9899 97.2 64.2677 97.0833 63.6788 96.85C63.0899 96.6056 62.6121 96.2944 62.2455 95.9167C61.8788 95.5389 61.6066 95.1389 61.4288 94.7167C61.251 94.2833 61.151 93.8778 61.1288 93.5H63.7621C63.7955 93.7444 63.8899 93.9889 64.0455 94.2333C64.2121 94.4778 64.451 94.6833 64.7621 94.85C65.0844 95.0167 65.4732 95.1 65.9288 95.1C66.6732 95.1 67.2177 94.8611 67.5621 94.3833C67.9177 93.9056 68.0955 93.2944 68.0955 92.55C68.0955 91.7833 67.901 91.1778 67.5121 90.7333C67.1232 90.2889 66.5844 90.0667 65.8955 90.0667C65.5066 90.0667 65.1788 90.1389 64.9121 90.2833C64.6455 90.4278 64.4288 90.6 64.2621 90.8C64.1066 90.9889 63.9899 91.1667 63.9121 91.3333H61.3455L62.1288 84H69.8621V86.1H64.2455L63.8788 89.2H64.2788C64.501 88.8778 64.801 88.6278 65.1788 88.45C65.5677 88.2611 66.0677 88.1667 66.6788 88.1667C67.5232 88.1667 68.251 88.35 68.8621 88.7167C69.4732 89.0722 69.9455 89.5778 70.2788 90.2333C70.6232 90.8889 70.7955 91.65 70.7955 92.5167C70.7955 93.45 70.5955 94.2667 70.1955 94.9667C69.7955 95.6667 69.2232 96.2167 68.4788 96.6167C67.7455 97.0056 66.8677 97.2 65.8455 97.2Z" fill="white"/>
</svg>
