<svg width="75" height="70" viewBox="0 0 75 70" fill="none" xmlns="http://www.w3.org/2000/svg">
<g id="Group 44">
<path id="Vector" d="M0 0H75V70H0V0Z" fill="#303B3C"/>
<path id="Vector_2" d="M17.2503 61.7364L23.6783 58.4946C24.9186 60.3269 26.0467 61.8773 28.7528 61.8773C31.3466 61.8773 32.9823 61.0318 32.9823 57.7429V35.3762H40.876V57.8359C40.876 64.6491 36.0834 67.7504 29.091 67.7504C22.7763 67.7504 19.1108 65.0251 17.25 61.7359M45.1636 61.0315L51.5909 57.9305C53.283 60.2331 55.4821 61.9246 59.3724 61.9246C62.6435 61.9246 64.729 60.5618 64.729 58.6821C64.729 56.4268 62.5864 55.6279 58.9777 54.3126L57.0046 53.6071C51.3094 51.5873 47.5317 49.0498 47.5317 43.6931C47.5317 38.7592 52.0424 35 59.0909 35C64.1092 35 67.7179 36.4569 70.3114 40.2628L64.165 43.5523C62.8115 41.5319 61.3461 40.7332 59.0905 40.7332C56.7786 40.7332 55.3125 41.9549 55.3125 43.5523C55.3125 45.5257 56.7786 46.325 60.1615 47.5467L62.1349 48.2513C68.845 50.648 72.6227 53.0912 72.6227 58.5884C72.6227 64.5094 67.0407 67.7513 59.5414 67.7513C52.2114 67.7513 47.4749 64.838 45.1633 61.0318" fill="white"/>
</g>
</svg>
