<svg width="70" height="70" viewBox="0 0 70 70" fill="none" xmlns="http://www.w3.org/2000/svg">
<path id="Vector" d="M23.8 20.3901H30.1C30.45 20.3901 30.8 19.9046 30.8 19.4192V12.137C30.8 11.6515 30.45 11.166 30.1 11.166H23.8C23.45 11.166 23.1 11.6515 23.1 12.137V19.9046C23.1 19.9046 23.45 20.3901 23.8 20.3901ZM32.2 31.5561H38.5C38.85 31.5561 39.2 31.0707 39.2 30.5852V22.8175C39.2 22.332 38.85 21.8466 38.5 21.8466H32.2C31.85 21.8466 31.5 22.332 31.5 22.8175V30.5852C31.5 31.0707 31.85 31.5561 32.2 31.5561ZM32.2 20.3901H38.5C38.85 20.3901 39.2 19.9046 39.2 19.4192V12.137L38.5 11.166H32.2C31.85 11.166 31.5 11.6515 31.5 12.137V19.9046C31.5 19.9046 31.85 20.3901 32.2 20.3901ZM40.95 31.5561H47.25C47.6 31.5561 47.95 31.0707 47.95 30.5852V22.8175C47.95 22.332 47.6 21.8466 47.25 21.8466H40.95C40.6 21.8466 40.25 22.332 40.25 22.8175V30.5852C40.25 31.0707 40.6 31.5561 40.95 31.5561ZM32.2 9.2241H38.5C38.85 9.2241 39.2 8.73862 39.2 8.25314V0.970959C39.2 0.48548 38.85 0 38.5 0H32.2C31.85 0 31.5 0.48548 31.5 0.970959V8.73862C31.5 9.2241 31.85 9.2241 32.2 9.2241ZM6.3 31.5561H12.6C12.95 31.5561 13.3 31.0707 13.3 30.5852V22.8175C13.3 22.332 12.95 21.8466 12.6 21.8466H6.3C5.95 21.8466 5.6 22.332 5.6 22.8175V30.5852L6.3 31.5561ZM69.3 26.7013C67.55 25.2449 65.45 24.2739 63.7 24.7594C62.65 24.7594 61.6 24.7594 60.9 25.2449C60.2 20.8756 58.45 16.9918 56 15.0498L54.95 14.0789L54.25 15.5353C53.2 16.5063 52.5 18.4482 52.15 20.8756C51.45 24.7594 51.8 28.6433 53.2 31.5561C51.45 32.5271 49.7 33.0126 47.95 33.4981H2.1C1.05 33.4981 0 34.9545 0 36.4109C0 42.2367 0.7 47.5769 2.1 52.9172C3.5 58.2575 5.95 62.6268 9.1 65.5397C14 68.938 19.25 70.3944 24.5 69.909C27.3 69.909 30.1 69.4235 32.9 68.938C36.75 67.967 40.6 66.0251 44.1 63.1123C46.9 60.6849 49.35 57.772 51.8 54.3736C54.95 49.0334 57.4 43.2076 59.15 36.4109H59.85C62.65 36.4109 65.45 34.9545 67.55 32.5271C68.6 31.5561 69.3 30.0997 69.65 28.1578L70 27.1868L69.3 26.7013ZM15.05 31.5561H21C21.35 31.5561 21.7 31.0707 21.7 30.5852V22.8175C21.7 22.332 21.35 21.8466 21 21.8466H15.05C14.7 21.8466 14.35 22.332 14.35 22.8175V30.5852C14.35 31.0707 14.7 31.5561 15.05 31.5561ZM15.05 20.3901H21C21.35 20.3901 21.7 19.9046 21.7 19.4192V12.137C21.7 11.6515 21.35 11.166 21 11.166H15.05C14.7 11.166 14.35 11.6515 14.35 12.137V19.9046C14.35 19.9046 14.7 20.3901 15.05 20.3901ZM23.8 31.5561H30.1C30.45 31.5561 30.8 31.0707 30.8 30.5852V22.8175C30.8 22.332 30.45 21.8466 30.1 21.8466H23.8C23.45 21.8466 23.1 22.332 23.1 22.8175V30.5852C23.1 31.0707 23.45 31.5561 23.8 31.5561Z" fill="white"/>
</svg>
