<svg width="70" height="70" viewBox="0 0 70 70" fill="none" xmlns="http://www.w3.org/2000/svg">
<path id="Vector" d="M64.4633 54.1754C60.6444 54.0694 57.728 54.4318 55.2346 55.5032C54.5262 55.8077 53.3955 55.8162 53.2798 56.7209C53.6693 57.1366 53.7299 57.7582 54.0393 58.2698C54.6347 59.251 55.6397 60.568 56.5367 61.2577C57.5171 62.012 58.5271 62.8179 59.5777 63.4708C61.4462 64.6317 63.5324 65.2953 65.3314 66.4586C66.392 67.1449 67.4453 68.0087 68.4798 68.7823C68.9917 69.1651 69.335 69.7601 70 70V69.89C69.6506 69.4362 69.5604 68.8135 69.2399 68.3399L67.8282 66.901C66.4482 65.0339 64.6959 63.3936 62.8335 62.0318C61.3483 60.9451 58.0246 59.4773 57.4053 57.7163L57.2968 57.6057C58.3496 57.4843 59.5821 57.0963 60.5542 56.8303C62.1869 56.3845 63.6459 56.4997 65.3314 56.0562L67.6112 55.392V54.9496C66.7592 54.0586 66.1516 52.8789 65.2229 52.0724C62.7912 49.9625 60.138 47.8543 57.4058 46.0961C55.8901 45.1217 54.0176 44.4882 52.4111 43.6618C51.8708 43.3833 50.9215 43.2387 50.5648 42.7759C49.7207 41.6801 49.2616 40.2906 48.6111 39.0139C47.2484 36.3385 45.9101 33.417 44.7026 30.6022C43.8791 28.6829 43.341 26.7908 42.3138 25.0689C37.3836 16.8069 32.0773 11.8209 23.8569 6.91946C22.1074 5.87701 20.0012 5.46581 17.7754 4.927C16.5818 4.85383 15.3871 4.77954 14.193 4.70524C13.4635 4.39556 12.7056 3.48639 12.0217 3.04513C9.29845 1.29145 2.31277 -2.52277 0.29619 2.49214C-0.977525 5.65751 2.19981 8.74518 3.33552 10.3497C4.13348 11.4738 5.15456 12.7358 5.72437 14.0011C6.09942 14.8332 6.16396 15.6675 6.48504 16.5472C7.27353 18.7149 7.96074 21.0732 8.98183 23.0758C9.49766 24.0899 10.0664 25.1574 10.7191 26.0637C11.1186 26.6201 11.8047 26.8651 11.9127 27.7238C11.2427 28.68 11.2043 30.1649 10.8276 31.3764C9.1304 36.8297 9.77088 43.6085 12.2393 47.6445C12.9961 48.8843 14.7806 51.5415 17.2334 50.5217C19.3791 49.6313 18.9 46.8703 19.5138 44.4349C19.6523 43.883 19.5672 43.4769 19.8393 43.1071V43.2177L21.7941 47.2015C23.2409 49.5762 25.8072 52.0576 27.983 53.7319C29.1109 54.6002 29.999 56.101 31.4574 56.6091V56.498H31.3489C31.0662 56.0493 30.6239 55.8633 30.2633 55.5026C29.4136 54.6535 28.4687 53.598 27.7665 52.6253C25.7878 49.8876 24.0394 46.8913 22.4463 43.7724C21.685 42.2825 21.0234 40.6399 20.3824 39.1239C20.1353 38.5397 20.1387 37.6555 19.6234 37.3532C18.9206 38.4637 17.8862 39.3621 17.3431 40.6734C16.4744 42.7696 16.3626 45.3264 16.0404 47.9774C15.8501 48.0466 15.9347 47.9989 15.8228 48.0874C14.3104 47.7159 13.7795 46.1296 13.217 44.7678C11.7958 41.3251 11.5315 35.7827 12.7824 31.8199C13.1062 30.7939 14.5686 27.5656 13.9765 26.6178C13.6939 25.6729 12.7612 25.1262 12.2399 24.4042C11.5938 23.5114 10.9494 22.3363 10.5015 21.3051C9.33852 18.6219 8.79542 15.6085 7.57067 12.8952C6.98473 11.598 5.9948 10.285 5.18183 9.13256C4.28205 7.85473 3.27376 6.91379 2.57597 5.36939C2.32779 4.82037 1.99114 3.94126 2.3584 3.37693C2.47525 2.99636 2.64107 2.83755 3.01 2.71334C3.6399 2.2182 5.39384 2.87782 6.04934 3.15516C7.79047 3.89248 9.24392 4.59464 10.7191 5.59059C11.4263 6.06928 12.143 6.99433 12.9988 7.25069H13.976C15.5045 7.60857 17.2167 7.36129 18.6452 7.80368C21.1692 8.58524 23.4312 9.80182 25.485 11.1239C31.7429 15.1519 36.86 20.8849 40.3601 27.7244C40.9232 28.8258 41.1669 29.8762 41.6627 31.0446C42.6632 33.4 43.9236 35.8235 44.9191 38.1274C45.9129 40.4255 46.8811 42.7447 48.2856 44.6572C49.024 45.6622 51.8753 46.2016 53.1718 46.7603C54.0799 47.151 55.5684 47.5594 56.4293 48.0874C58.0725 49.0981 59.665 50.3011 61.207 51.4082C61.9765 51.9612 64.3453 53.1755 64.4633 54.1754ZM15.9302 12.0115C15.134 11.9962 14.5708 12.1 13.9754 12.2321V12.3427H14.0839C14.464 13.1379 15.1345 13.6506 15.6036 14.3352C15.9653 15.1105 16.3275 15.8847 16.6898 16.6589L16.7977 16.5494C17.4705 16.0656 17.7782 15.2937 17.7743 14.114C17.505 13.8253 17.4655 13.4635 17.2318 13.1186C16.9224 12.6586 16.322 12.3972 15.9302 12.0115Z" fill="white"/>
</svg>
