<svg width="70" height="70" viewBox="0 0 70 70" fill="none" xmlns="http://www.w3.org/2000/svg">
<path id="Vector" d="M53.248 35.0652C53.121 37.8777 51.0587 40.2131 49.0261 39.8055C49.0164 39.8055 49.0061 39.8055 48.9957 39.8055C46.7444 39.8092 44.9173 37.6373 44.9148 34.9551C44.9914 32.2657 46.8635 30.146 49.1215 30.1916C51.3728 30.2046 53.3695 32.4713 53.248 35.0652ZM17.0467 62.3194C17.8956 62.349 18.7451 62.3273 19.724 62.3273V69.6565C13.6397 70.8821 8.62786 68.824 7.398 62.6965C6.97691 60.4436 6.71805 58.1516 6.62326 55.8459C6.49262 53.4048 6.71866 50.9361 6.5625 48.4993C6.12986 41.7942 5.40069 39.5051 0 39.188V30.8432C0.387066 30.7353 0.779601 30.6557 1.17457 30.6028C4.13559 30.4291 5.38368 29.3475 6.04601 25.8726C6.34739 23.9201 6.52604 21.9438 6.57891 19.9594C6.81345 16.1226 6.73021 12.2234 7.26675 8.44879C8.0421 2.99028 10.8865 0.338482 15.5847 0.0416665C16.9215 -0.0437585 18.2626 0.0286362 19.7774 0.0286362V7.51997C19.154 7.57282 18.5828 7.68069 18.0153 7.66042C14.1865 7.5207 13.9885 9.07427 13.7089 12.8503C13.5345 15.2184 13.7752 17.6269 13.6397 20.0029C13.4981 22.3673 13.2326 24.7193 12.8449 27.0446C12.2925 30.4146 10.5535 32.9209 8.14358 35.0478C12.8218 38.6747 13.3541 44.3106 13.6579 50.0334C13.8214 53.1087 13.7466 56.2057 14.0085 59.2658C14.2127 61.641 14.988 62.247 17.0467 62.3194ZM20.9897 30.1916H21.062C23.2987 30.2358 25.0827 32.4315 25.0457 35.097C25.0457 35.1846 25.0432 35.2715 25.039 35.3584C24.9132 37.9631 23.0392 39.9525 20.853 39.8026C20.7648 39.8048 20.6773 39.8026 20.5892 39.7976C18.3628 39.6658 16.6475 37.4086 16.7581 34.7561C16.8687 32.1035 18.7633 30.0599 20.9897 30.1916ZM34.9283 30.1916C37.3746 30.1692 38.9995 32.0579 39.0122 34.9392C39.0256 37.898 37.4852 39.7911 35.0547 39.8034C32.5828 39.8164 30.9556 37.9537 30.9422 35.0898C30.9349 34.9436 30.9331 34.7973 30.9367 34.6511C31.0054 32.1064 32.7924 30.1098 34.9283 30.1916ZM64.112 26.5415C64.7628 29.4373 66.0297 30.4551 68.5885 30.5941C69.0077 30.6173 69.4252 30.702 70 30.778V39.1207C69.6889 39.2423 69.3699 39.3335 69.046 39.3929C65.6171 39.647 64.0542 41.3229 63.7079 45.419C63.4867 48.0338 63.5049 50.6777 63.353 53.302C63.2892 56.1832 63.0693 59.0566 62.6944 61.9038C61.8194 67.0626 59.116 69.6362 54.6492 69.9504C53.2115 70.0518 51.7635 69.9663 50.2135 69.9663V62.5098C51.0477 62.4482 51.7842 62.3635 52.5225 62.3425C55.1912 62.2665 56.1349 61.2414 56.2655 58.0836C56.4102 54.6145 56.4733 51.141 56.6034 47.6712C56.7924 42.6557 57.9451 38.1752 61.8668 35.0471C59.6227 33.1409 57.8211 30.8323 57.3544 27.7194C56.7899 23.9462 56.6076 20.0897 56.3038 16.2637C56.1537 14.3511 56.161 12.4218 56.0042 10.5106C55.8353 8.44734 54.6456 7.73353 53.0694 7.6872C52.1664 7.66114 51.2598 7.68213 50.1053 7.68213V0.400741C57.4723 -1.05655 62.5613 1.86382 63.034 10.2615C63.2321 13.7878 63.203 17.3308 63.3925 20.8571C63.4758 22.7756 63.7164 24.6795 64.112 26.5415Z" fill="white"/>
</svg>
