<svg width="70" height="70" viewBox="0 0 70 70" fill="none" xmlns="http://www.w3.org/2000/svg">
<path id="Vector" fill-rule="evenodd" clip-rule="evenodd" d="M68.8134 58.2539C67.5952 57.4073 66.3505 56.5807 65.211 55.6619C63.9419 54.6394 63.1445 53.4026 63.3182 51.8365C63.418 50.9354 63.1716 50.1604 61.8842 49.8591C62.1869 49.198 62.4706 48.7547 62.5853 48.2821C62.7129 47.7551 62.7061 47.2012 62.7237 46.6587C62.9029 40.9533 60.4611 35.9519 56.8445 31.2868C55.179 29.1398 53.4396 27.0312 51.6642 24.9478C48.8871 21.6896 47.8915 18.0292 47.8413 14.0749C47.8169 12.2613 47.5631 10.4202 47.1077 8.64734C46.2166 5.18744 44.0204 2.48195 40.0374 1.03097C36.9854 -0.0814648 33.8262 -0.302005 30.6033 0.410024C25.9198 1.44398 23.0878 4.38204 23.1407 8.48007C23.1909 12.424 23.4237 16.3731 23.7664 20.3079C23.9619 22.5379 23.5547 24.4621 21.8017 26.231C20.1159 27.9317 18.6079 29.7665 17.1474 31.6138C16.3133 32.6702 15.5749 33.821 15.0592 35.0113C13.6543 38.2552 12.3628 41.5261 10.1212 44.463C9.29052 45.5514 9.19619 46.7692 9.78595 48.014C9.93865 48.3365 10.0323 48.8326 9.84635 49.0921C8.24878 51.3301 6.44557 53.2995 3.01492 53.7291C0.316559 54.0677 0.18354 54.4818 0.265659 56.8299C0.333525 58.7414 0.307057 60.6707 0.0756324 62.5702C-0.170722 64.6066 0.0810619 65.16 2.41159 65.648C7.78932 66.7754 13.2112 67.7371 18.3548 69.5742C20.5448 70.3561 22.7423 70.0846 24.5062 68.5643C26.3474 66.977 28.6738 66.356 31.1869 66.3538C35.4523 66.3509 39.7191 66.5245 43.9865 66.5651C45.1416 66.5766 45.8047 66.9392 46.2695 67.8248C46.8396 68.9092 47.8033 69.706 49.2862 69.8446C52.1318 70.1092 54.7243 69.7529 56.8804 67.9205C59.5394 65.6589 62.6056 63.8728 66.1204 62.6349C67.1262 62.2804 68.0736 61.723 68.905 61.1181C70.4191 60.0171 70.339 59.316 68.8134 58.2539ZM33.9321 12.1554C34.4465 10.6654 35.6539 9.69848 37.4903 9.40519C39.035 9.15887 40.3428 9.7993 41.3173 11.2646C42.3665 12.8445 42.7113 14.4954 41.8155 16.2242C41.0805 17.6414 40.7357 17.7748 39.0173 17.2942C38.6957 17.2043 38.3814 17.0977 37.8114 16.9207C38.2918 16.5805 38.5945 16.3279 38.9407 16.1291C39.7103 15.6869 39.9261 15.0648 39.8541 14.3258C39.7598 13.3554 38.8558 12.4962 37.9288 12.5071C37.0974 12.5168 36.3936 13.1756 36.3 14.1769C36.2416 14.8007 36.3644 15.4365 36.4174 16.2328C34.0787 15.6468 33.2202 14.2135 33.9321 12.1554ZM25.2792 10.8659C26.1438 9.76149 27.4488 9.54038 28.741 10.2793C30.118 11.0675 31.1482 13.2901 30.6162 14.6191C30.4227 15.1026 29.8513 15.4783 29.4516 15.9028L29.0417 15.6886C28.8856 14.9708 28.8544 14.2078 28.5279 13.5502C28.3216 13.1332 27.6748 12.872 27.2256 12.5409C26.8034 12.9642 26.0766 13.3675 26.0332 13.8171C25.9734 14.4381 26.3569 15.1232 26.6908 15.7252C26.9018 16.1039 27.3701 16.3811 27.8533 16.8228L26.5489 17.6878C24.5007 16.1411 23.892 12.6354 25.2792 10.8659ZM50.8403 47.6451C50.7026 49.1367 50.501 49.1992 48.7243 49.4197C47.4626 49.5755 47.1233 49.8528 47.0595 51.1176C46.9862 52.5961 46.991 54.0797 47.0514 55.5588C47.0928 56.5727 46.6869 57.3678 45.8603 58.0752C41.2698 62.0025 35.7855 63.8637 29.2249 63.1883C26.3949 62.8967 24.5448 61.4429 23.0511 59.3853C23.7162 59.1773 24.2082 59.0376 24.688 58.8732C26.8068 58.1457 27.2032 56.6076 25.5113 55.2775C24.2327 54.271 22.8061 53.3969 21.4345 52.4752C20.1084 51.5845 18.7647 50.712 17.4365 49.8236C16.3045 49.0657 15.8722 48.089 15.8451 46.8517C15.7813 43.8833 16.5047 41.1062 17.9747 38.4042C19.2859 35.9931 20.3018 33.4681 21.5302 31.0233C22.1648 29.7619 22.8238 28.4713 23.7549 27.364C24.65 26.302 25.2031 25.2623 25.1041 23.9614C25.0471 23.2305 25.0932 22.4938 25.0932 21.76L25.573 21.5584C26.3474 22.1226 27.1353 22.6748 27.8961 23.2534C30.6413 25.3419 33.2521 25.4376 36.2565 23.6372C37.5379 22.869 38.9237 22.2223 40.279 21.5452C40.6163 21.3768 41.0201 21.3029 41.5915 21.1224C43.0513 24.0244 44.484 26.8697 45.918 29.7149C46.6455 31.1607 47.2292 32.6747 48.1331 34.0381C49.9459 36.7733 50.9102 39.6593 50.8953 42.7863C50.8872 44.4075 50.9883 46.0343 50.8403 47.6451Z" fill="white" fill-opacity="0.79"/>
</svg>
